<svg xmlns="http://www.w3.org/2000/svg" width="18" height="18" viewBox="0 0 18 18" fill="none">
<path fill-rule="evenodd" clip-rule="evenodd" d="M5.365 0.052896C6.30511 0.00961745 6.60485 0 8.9996 0C11.3943 0 11.6941 0.0104189 12.6334 0.052896C13.5727 0.0953731 14.2139 0.245245 14.7749 0.46244C15.3624 0.684443 15.8953 1.03147 16.3361 1.48029C16.7849 1.92029 17.1312 2.45245 17.3524 3.04072C17.5704 3.60174 17.7194 4.2429 17.7627 5.18061C17.806 6.12232 17.8156 6.42206 17.8156 8.81601C17.8156 11.2108 17.8052 11.5105 17.7627 12.4506C17.7202 13.3883 17.5704 14.0295 17.3524 14.5905C17.1312 15.1788 16.7844 15.7119 16.3361 16.1525C15.8953 16.6013 15.3624 16.9476 14.7749 17.1688C14.2139 17.3868 13.5727 17.5358 12.635 17.5791C11.6941 17.6224 11.3943 17.632 8.9996 17.632C6.60485 17.632 6.30511 17.6216 5.365 17.5791C4.4273 17.5366 3.78613 17.3868 3.22512 17.1688C2.63678 16.9475 2.10374 16.6007 1.66308 16.1525C1.21457 15.7123 0.867487 15.1795 0.646033 14.5913C0.428839 14.0303 0.279768 13.3891 0.23649 12.4514C0.193211 11.5097 0.183594 11.21 0.183594 8.81601C0.183594 6.42126 0.194013 6.12151 0.23649 5.18221C0.278967 4.2429 0.428839 3.60174 0.646033 3.04072C0.867814 2.45252 1.21516 1.91974 1.66388 1.47949C2.10391 1.03107 2.63642 0.683997 3.22431 0.46244C3.78533 0.245245 4.4265 0.0961746 5.3642 0.052896H5.365ZM12.5621 1.63978C11.6324 1.5973 11.3535 1.58848 8.9996 1.58848C6.64573 1.58848 6.36682 1.5973 5.43713 1.63978C4.57717 1.67905 4.11072 1.82251 3.79976 1.94353C3.38861 2.10382 3.09448 2.29376 2.78592 2.60232C2.49342 2.88688 2.26832 3.2333 2.12712 3.61617C2.0061 3.92713 1.86264 4.39358 1.82337 5.25354C1.78089 6.18323 1.77208 6.46213 1.77208 8.81601C1.77208 11.1699 1.78089 11.4488 1.82337 12.3785C1.86264 13.2384 2.0061 13.7049 2.12712 14.0158C2.26818 14.3981 2.49339 14.7452 2.78592 15.0297C3.07044 15.3222 3.41747 15.5474 3.79976 15.6885C4.11072 15.8095 4.57717 15.953 5.43713 15.9922C6.36682 16.0347 6.64492 16.0435 8.9996 16.0435C11.3543 16.0435 11.6324 16.0347 12.5621 15.9922C13.422 15.953 13.8885 15.8095 14.1994 15.6885C14.6106 15.5282 14.9047 15.3382 15.2133 15.0297C15.5058 14.7452 15.731 14.3981 15.8721 14.0158C15.9931 13.7049 16.1366 13.2384 16.1758 12.3785C16.2183 11.4488 16.2271 11.1699 16.2271 8.81601C16.2271 6.46213 16.2183 6.18323 16.1758 5.25354C16.1366 4.39358 15.9931 3.92713 15.8721 3.61617C15.7118 3.20502 15.5218 2.91088 15.2133 2.60232C14.9287 2.30985 14.5823 2.08475 14.1994 1.94353C13.8885 1.82251 13.422 1.67905 12.5621 1.63978ZM7.87356 11.5337C8.50242 11.7955 9.20267 11.8309 9.8547 11.6337C10.5067 11.4365 11.0701 11.0191 11.4485 10.4528C11.827 9.8864 11.9971 9.20621 11.9298 8.52837C11.8624 7.85052 11.5619 7.21708 11.0794 6.73623C10.7718 6.42885 10.3999 6.19349 9.99047 6.0471C9.58102 5.9007 9.14421 5.8469 8.71147 5.88959C8.27874 5.93227 7.86085 6.07036 7.4879 6.29393C7.11494 6.5175 6.79619 6.82098 6.5546 7.18252C6.31301 7.54406 6.15459 7.95467 6.09073 8.38479C6.02688 8.81491 6.05918 9.25383 6.18532 9.66997C6.31146 10.0861 6.5283 10.4691 6.82022 10.7914C7.11214 11.1136 7.47189 11.3672 7.87356 11.5337ZM5.79538 5.61179C6.21617 5.191 6.71571 4.85722 7.26549 4.62949C7.81527 4.40177 8.40452 4.28456 8.9996 4.28456C9.59468 4.28456 10.1839 4.40177 10.7337 4.62949C11.2835 4.85722 11.783 5.191 12.2038 5.61179C12.6246 6.03257 12.9584 6.53212 13.1861 7.0819C13.4138 7.63168 13.531 8.22093 13.531 8.81601C13.531 9.41108 13.4138 10.0003 13.1861 10.5501C12.9584 11.0999 12.6246 11.5994 12.2038 12.0202C11.354 12.87 10.2014 13.3475 8.9996 13.3475C7.79778 13.3475 6.64519 12.87 5.79538 12.0202C4.94557 11.1704 4.46815 10.0178 4.46815 8.81601C4.46815 7.61419 4.94557 6.4616 5.79538 5.61179ZM14.5361 4.9594C14.6403 4.86104 14.7238 4.74276 14.7815 4.61155C14.8393 4.48035 14.8701 4.33889 14.8722 4.19556C14.8743 4.05223 14.8476 3.90994 14.7937 3.77711C14.7398 3.64427 14.6598 3.52361 14.5585 3.42224C14.4571 3.32088 14.3364 3.24089 14.2036 3.187C14.0708 3.13311 13.9285 3.10642 13.7851 3.10851C13.6418 3.1106 13.5004 3.14143 13.3692 3.19917C13.238 3.2569 13.1197 3.34038 13.0213 3.44465C12.83 3.64745 12.7253 3.91681 12.7293 4.19556C12.7334 4.47431 12.8459 4.74051 13.0431 4.93764C13.2402 5.13477 13.5064 5.24731 13.7851 5.25137C14.0639 5.25544 14.3333 5.1507 14.5361 4.9594Z" fill="white"/>
</svg>