<svg xmlns="http://www.w3.org/2000/svg" width="18" height="19" viewBox="0 0 18 19" fill="none">
<path d="M4.08116 18.7814H0.388176V6.88874H4.08116V18.7814ZM2.23244 5.26649C1.05171 5.26649 0.0936279 4.28806 0.0936279 3.10732C0.0936279 2.54007 0.318967 1.99606 0.720073 1.59495C1.12118 1.19384 1.66519 0.968506 2.23244 0.968506C2.79969 0.968506 3.34371 1.19384 3.74481 1.59495C4.14592 1.99606 4.37126 2.54007 4.37126 3.10732C4.37126 4.28806 3.41318 5.26649 2.23244 5.26649ZM17.9027 18.7814H14.218V12.9922C14.218 11.6123 14.19 9.84313 12.298 9.84313C10.378 9.84313 10.0835 11.342 10.0835 12.8929V18.7814H6.39429V6.88874H9.93587V8.51098H9.9874C10.4804 7.57644 11.6847 6.59037 13.4813 6.59037C17.2188 6.59037 17.9059 9.05173 17.9059 12.2485V18.7814H17.9027Z" fill="white"/>
</svg>