<svg xmlns="http://www.w3.org/2000/svg" width="21" height="16" viewBox="0 0 21 16" fill="none">
<path d="M20.0715 2.06477C19.3675 2.37672 18.6113 2.5875 17.8162 2.68277C18.6365 2.1919 19.2503 1.41933 19.5429 0.509219C18.7722 0.967022 17.9286 1.28927 17.049 1.46194C16.4574 0.830332 15.6739 0.411693 14.82 0.271017C13.9662 0.130341 13.0898 0.2755 12.3269 0.683957C11.564 1.09241 10.9573 1.74132 10.6009 2.52992C10.2446 3.31852 10.1586 4.2027 10.3563 5.04518C8.79459 4.96677 7.26681 4.56085 5.87212 3.85378C4.47744 3.14671 3.24701 2.15427 2.2607 0.940894C1.92345 1.52264 1.72954 2.19714 1.72954 2.91547C1.72916 3.56214 1.88841 4.1989 2.19315 4.76926C2.49789 5.33962 2.9387 5.82594 3.47647 6.18508C2.8528 6.16523 2.24289 5.99671 1.6975 5.69354V5.74413C1.69744 6.6511 2.01117 7.53017 2.58545 8.23216C3.15974 8.93415 3.95922 9.41584 4.84822 9.59548C4.26966 9.75206 3.66309 9.77512 3.07431 9.66293C3.32513 10.4433 3.81372 11.1258 4.47166 11.6147C5.1296 12.1036 5.92397 12.3745 6.74355 12.3896C5.35227 13.4817 3.63404 14.0742 1.86528 14.0716C1.55196 14.0717 1.23891 14.0534 0.927734 14.0168C2.72313 15.1712 4.8131 15.7838 6.94758 15.7814C14.1731 15.7814 18.1231 9.79699 18.1231 4.60676C18.1231 4.43814 18.1189 4.26783 18.1113 4.09921C18.8796 3.54357 19.5428 2.85552 20.0698 2.0673L20.0715 2.06477Z" fill="white"/>
</svg>